<svg width="361" height="69" viewBox="0 0 361 69" fill="none" xmlns="http://www.w3.org/2000/svg">
<path d="M40.7188 55H37.5938L9.46875 15.625H9.15625V55H5.90625V9.75H9.09375L37.2188 49.1875H37.5312V9.75H40.7188V55ZM64.7812 55.6875C61.7396 55.6875 59.0625 54.9479 56.75 53.4688C54.4583 51.9688 52.6771 49.8958 51.4062 47.25C50.1562 44.5833 49.5312 41.5625 49.5312 38.1875C49.5312 34.8333 50.1562 31.8229 51.4062 29.1562C52.6771 26.4688 54.4167 24.3646 56.625 22.8438C58.8333 21.3229 61.3438 20.5625 64.1562 20.5625C66.7188 20.5625 69.0833 21.2292 71.25 22.5625C73.4375 23.875 75.1771 25.7812 76.4688 28.2812C77.7604 30.7604 78.4062 33.6875 78.4062 37.0625V38.8125H52.7188C52.7396 41.5417 53.2396 43.9688 54.2188 46.0938C55.2188 48.1979 56.625 49.8438 58.4375 51.0312C60.25 52.2188 62.3646 52.8125 64.7812 52.8125C67.1771 52.8125 69.1562 52.2812 70.7188 51.2188C72.3021 50.1562 73.4688 48.9375 74.2188 47.5625H77.5938C77.0938 49.0208 76.25 50.375 75.0625 51.625C73.8958 52.8542 72.4271 53.8438 70.6562 54.5938C68.9062 55.3229 66.9479 55.6875 64.7812 55.6875ZM75.2188 36C75.2188 33.6667 74.7292 31.5417 73.75 29.625C72.7917 27.7083 71.4688 26.1979 69.7812 25.0938C68.1146 23.9896 66.2396 23.4375 64.1562 23.4375C62.0938 23.4375 60.2188 24 58.5312 25.125C56.8438 26.2292 55.4896 27.7396 54.4688 29.6562C53.4479 31.5729 52.875 33.6875 52.75 36H75.2188ZM83.5312 21.0625H86.8438L95.3438 50.375H95.5938L104.094 21.0625H107.406L115.844 50.3125H116.094L124.594 21.0625H127.906L117.719 55H114.344L105.906 26.0625H105.531L97.0938 55H93.7188L83.5312 21.0625ZM148.344 29.875H148.594L161.656 9.75H165.531L150.781 32.375L165.531 55H161.656L148.594 35H148.344L135.219 55H131.344L146.281 32.375L131.344 9.75H135.281L148.344 29.875Z" fill="#6B4FCA"/>
<path d="M175.438 9.75H194.125C197.438 9.75 200.24 10.2292 202.531 11.1875C204.844 12.125 206.583 13.4583 207.75 15.1875C208.917 16.9167 209.5 18.9375 209.5 21.25C209.5 23.7708 208.729 25.8958 207.188 27.625C205.646 29.3542 203.604 30.4792 201.062 31V31.4375C202.896 31.5208 204.583 32.0208 206.125 32.9375C207.688 33.8542 208.927 35.125 209.844 36.75C210.781 38.375 211.25 40.25 211.25 42.375C211.25 44.8125 210.635 46.9896 209.406 48.9062C208.177 50.8021 206.375 52.2917 204 53.375C201.646 54.4583 198.833 55 195.562 55H175.438V9.75ZM193.062 46.375C195.438 46.375 197.208 45.9271 198.375 45.0312C199.542 44.1146 200.125 42.8333 200.125 41.1875C200.125 39.3958 199.51 37.9792 198.281 36.9375C197.052 35.875 195.375 35.3542 193.25 35.375H186.062V46.375H193.062ZM192.375 28.4375C194.229 28.4167 195.729 27.9479 196.875 27.0312C198.042 26.0938 198.625 24.8333 198.625 23.25C198.625 21.7083 198.073 20.4896 196.969 19.5938C195.885 18.6979 194.396 18.25 192.5 18.25H186.062V28.4375H192.375ZM216.438 21.0625H227V55H216.438V21.0625ZM221.75 17C220.771 17 219.865 16.7812 219.031 16.3438C218.198 15.8854 217.531 15.2708 217.031 14.5C216.552 13.7083 216.312 12.8542 216.312 11.9375C216.312 11.0208 216.552 10.1771 217.031 9.40625C217.531 8.61458 218.198 8 219.031 7.5625C219.865 7.10417 220.771 6.875 221.75 6.875C222.75 6.875 223.667 7.10417 224.5 7.5625C225.333 8 226 8.61458 226.5 9.40625C227 10.1771 227.25 11.0208 227.25 11.9375C227.25 12.8542 227 13.7083 226.5 14.5C226 15.2708 225.333 15.8854 224.5 16.3438C223.667 16.7812 222.75 17 221.75 17ZM244.312 55H233.75V9.75H244.312V55ZM261.625 55H251.062V9.75H261.625V55ZM268.375 21.0625H278.938V55H268.375V21.0625ZM273.688 17C272.708 17 271.802 16.7812 270.969 16.3438C270.135 15.8854 269.469 15.2708 268.969 14.5C268.49 13.7083 268.25 12.8542 268.25 11.9375C268.25 11.0208 268.49 10.1771 268.969 9.40625C269.469 8.61458 270.135 8 270.969 7.5625C271.802 7.10417 272.708 6.875 273.688 6.875C274.688 6.875 275.604 7.10417 276.438 7.5625C277.271 8 277.938 8.61458 278.438 9.40625C278.938 10.1771 279.188 11.0208 279.188 11.9375C279.188 12.8542 278.938 13.7083 278.438 14.5C277.938 15.2708 277.271 15.8854 276.438 16.3438C275.604 16.7812 274.688 17 273.688 17ZM296.25 55H285.688V21.0625H295.688V27.25H296.062C296.833 25.1875 298.125 23.5729 299.938 22.4062C301.75 21.2188 303.896 20.625 306.375 20.625C308.729 20.625 310.792 21.1562 312.562 22.2188C314.354 23.2604 315.729 24.75 316.688 26.6875C317.646 28.6042 318.125 30.8333 318.125 33.375V55H307.625V35.375C307.625 33.4583 307.135 31.9688 306.156 30.9062C305.177 29.8229 303.812 29.2708 302.062 29.25C300.292 29.2708 298.875 29.8438 297.812 30.9688C296.771 32.0729 296.25 33.6042 296.25 35.5625V55ZM340.5 68.4375C337.312 68.4375 334.531 67.9792 332.156 67.0625C329.802 66.1667 327.969 64.8958 326.656 63.25C325.344 61.625 324.604 59.7292 324.438 57.5625H334.688C334.896 58.7708 335.531 59.6562 336.594 60.2188C337.677 60.7812 339.094 61.0625 340.844 61.0625C345.073 61.0625 347.188 59.0625 347.188 55.0625V49.0625H346.812C346.125 50.6875 344.948 52.0104 343.281 53.0312C341.635 54.0312 339.604 54.5417 337.188 54.5625C334.604 54.5417 332.281 53.9375 330.219 52.75C328.177 51.5417 326.552 49.6979 325.344 47.2188C324.156 44.7188 323.562 41.625 323.562 37.9375C323.562 34.1458 324.177 30.9479 325.406 28.3438C326.635 25.7396 328.271 23.8021 330.312 22.5312C332.375 21.2604 334.646 20.625 337.125 20.625C339.625 20.625 341.667 21.2292 343.25 22.4375C344.833 23.625 346 25.1042 346.75 26.875H347.062V21.0625H357.562V55.1875C357.562 58 356.854 60.3958 355.438 62.375C354.021 64.375 352.021 65.8854 349.438 66.9062C346.875 67.9271 343.896 68.4375 340.5 68.4375ZM334.375 37.9375C334.375 40.7292 334.927 42.9062 336.031 44.4688C337.135 46.0312 338.708 46.8125 340.75 46.8125C342.771 46.8125 344.344 46.0417 345.469 44.5C346.615 42.9583 347.188 40.8021 347.188 38.0312C347.188 35.1979 346.625 32.9688 345.5 31.3438C344.375 29.6979 342.792 28.875 340.75 28.875C338.729 28.875 337.156 29.6875 336.031 31.3125C334.927 32.9375 334.375 35.1458 334.375 37.9375Z" fill="#002E5F"/>
<circle cx="174" cy="51" r="6.5" fill="#002E5F" stroke="white" stroke-width="3"/>
</svg>
