<svg width="203" height="36" viewBox="0 0 203 36" fill="none" xmlns="http://www.w3.org/2000/svg">
<path d="M81.9928 13.2396H82.1367L89.656 1.65491H91.8865L83.3959 14.6786L91.8865 27.7024H89.656L82.1367 16.1897H81.9928L74.4376 27.7024H72.207L80.8056 14.6786L72.207 1.65491H74.4736L81.9928 13.2396Z" fill="#6B4FCA"/>
<path d="M44.6836 8.16687H46.5904L51.4833 25.0402H51.6272L56.5201 8.16687H58.4269L63.2838 25.0042H63.4277L68.3206 8.16687H70.2274L64.3631 27.7025H62.4203L57.5634 11.045H57.3476L52.4906 27.7025H50.5479L44.6836 8.16687Z" fill="#6B4FCA"/>
<path d="M33.8898 28.0982C32.1389 28.0982 30.5978 27.6725 29.2667 26.821C27.9475 25.9575 26.9222 24.7643 26.1906 23.2413C25.4711 21.7062 25.1113 19.9674 25.1113 18.0246C25.1113 16.0938 25.4711 14.3609 26.1906 12.8259C26.9222 11.2789 27.9235 10.0676 29.1947 9.19219C30.4659 8.31675 31.911 7.87903 33.53 7.87903C35.005 7.87903 36.3662 8.26278 37.6134 9.0303C38.8726 9.78582 39.874 10.8831 40.6175 12.3222C41.361 13.7493 41.7328 15.4342 41.7328 17.377V18.3844H26.9462C26.9582 19.9554 27.246 21.3525 27.8096 22.5757C28.3852 23.7869 29.1947 24.7343 30.2381 25.4179C31.2814 26.1015 32.4986 26.4432 33.8898 26.4432C35.2689 26.4432 36.4082 26.1374 37.3076 25.5258C38.219 24.9142 38.8906 24.2127 39.3223 23.4212H41.2651C40.9773 24.2606 40.4916 25.0401 39.808 25.7597C39.1364 26.4672 38.291 27.0369 37.2716 27.4686C36.2642 27.8883 35.137 28.0982 33.8898 28.0982ZM39.8979 16.7654C39.8979 15.4222 39.6161 14.199 39.0525 13.0957C38.5008 11.9924 37.7393 11.123 36.7679 10.4874C35.8085 9.85178 34.7292 9.53398 33.53 9.53398C32.3427 9.53398 31.2634 9.85777 30.292 10.5054C29.3207 11.141 28.5412 12.0104 27.9535 13.1137C27.3659 14.217 27.0361 15.4342 26.9642 16.7654H39.8979Z" fill="#6B4FCA"/>
<path d="M20.0393 27.7024H18.2404L2.0507 5.03676H1.87081V27.7024H0V1.65491H1.83483L18.0246 24.3565H18.2044V1.65491H20.0393V27.7024Z" fill="#6B4FCA"/>
<path d="M192.603 35.4374C190.768 35.4374 189.168 35.1736 187.8 34.6459C186.445 34.1303 185.39 33.3987 184.634 32.4513C183.879 31.5159 183.453 30.4246 183.357 29.1774H189.257C189.377 29.873 189.743 30.3827 190.355 30.7064C190.978 31.0302 191.794 31.1921 192.801 31.1921C195.236 31.1921 196.453 30.0409 196.453 27.7383V24.2845H196.237C195.841 25.2199 195.164 25.9814 194.204 26.5691C193.257 27.1447 192.088 27.4385 190.697 27.4505C189.209 27.4385 187.872 27.0907 186.685 26.4072C185.51 25.7116 184.574 24.6503 183.879 23.2232C183.195 21.7841 182.854 20.0032 182.854 17.8806C182.854 15.698 183.207 13.8571 183.915 12.3581C184.622 10.859 185.564 9.74376 186.739 9.01222C187.926 8.28068 189.233 7.91492 190.661 7.91492C192.1 7.91492 193.275 8.2627 194.186 8.95825C195.098 9.64182 195.769 10.4933 196.201 11.5126H196.381V8.16676H202.425V27.8103C202.425 29.4293 202.017 30.8084 201.202 31.9477C200.386 33.0989 199.235 33.9684 197.748 34.556C196.273 35.1436 194.558 35.4374 192.603 35.4374ZM189.078 17.8806C189.078 19.4876 189.395 20.7408 190.031 21.6402C190.667 22.5396 191.572 22.9893 192.747 22.9893C193.91 22.9893 194.816 22.5456 195.464 21.6582C196.123 20.7708 196.453 19.5295 196.453 17.9346C196.453 16.3036 196.129 15.0204 195.481 14.085C194.834 13.1376 193.922 12.6639 192.747 12.6639C191.584 12.6639 190.679 13.1316 190.031 14.067C189.395 15.0024 189.078 16.2736 189.078 17.8806Z" fill="#002E5F"/>
<path d="M167.131 27.7024H161.051V8.16676H166.807V11.7285H167.023C167.467 10.5412 168.21 9.61184 169.254 8.94027C170.297 8.2567 171.532 7.91492 172.959 7.91492C174.314 7.91492 175.502 8.22072 176.521 8.83233C177.552 9.43195 178.344 10.2894 178.895 11.4047C179.447 12.508 179.723 13.7912 179.723 15.2543V27.7024H173.679V16.4055C173.679 15.3022 173.397 14.4448 172.833 13.8332C172.27 13.2096 171.484 12.8918 170.477 12.8798C169.457 12.8918 168.642 13.2215 168.03 13.8691C167.431 14.5047 167.131 15.3862 167.131 16.5135V27.7024Z" fill="#002E5F"/>
<path d="M151.086 8.16681H157.166V27.7024H151.086V8.16681ZM154.144 5.8283C153.58 5.8283 153.058 5.70238 152.579 5.45054C152.099 5.18671 151.715 4.83293 151.427 4.38921C151.152 3.9335 151.014 3.44181 151.014 2.91415C151.014 2.38648 151.152 1.90079 151.427 1.45707C151.715 1.00136 152.099 0.647589 152.579 0.395749C153.058 0.131916 153.58 0 154.144 0C154.719 0 155.247 0.131916 155.727 0.395749C156.206 0.647589 156.59 1.00136 156.878 1.45707C157.166 1.90079 157.31 2.38648 157.31 2.91415C157.31 3.44181 157.166 3.9335 156.878 4.38921C156.59 4.83293 156.206 5.18671 155.727 5.45054C155.247 5.70238 154.719 5.8283 154.144 5.8283Z" fill="#002E5F"/>
<path d="M147.201 27.7024H141.121V1.65491H147.201V27.7024Z" fill="#002E5F"/>
<path d="M137.234 27.7024H131.154V1.65491H137.234V27.7024Z" fill="#002E5F"/>
<path d="M121.189 8.16681H127.269V27.7024H121.189V8.16681ZM124.247 5.8283C123.684 5.8283 123.162 5.70238 122.682 5.45054C122.202 5.18671 121.819 4.83293 121.531 4.38921C121.255 3.9335 121.117 3.44181 121.117 2.91415C121.117 2.38648 121.255 1.90079 121.531 1.45707C121.819 1.00136 122.202 0.647589 122.682 0.395749C123.162 0.131916 123.684 0 124.247 0C124.823 0 125.35 0.131916 125.83 0.395749C126.31 0.647589 126.694 1.00136 126.981 1.45707C127.269 1.90079 127.413 2.38648 127.413 2.91415C127.413 3.44181 127.269 3.9335 126.981 4.38921C126.694 4.83293 126.31 5.18671 125.83 5.45054C125.35 5.70238 124.823 5.8283 124.247 5.8283Z" fill="#002E5F"/>
<path d="M97.5879 1.65491H108.345C110.252 1.65491 111.865 1.93073 113.184 2.48238C114.515 3.02204 115.517 3.78955 116.188 4.78492C116.86 5.78029 117.195 6.94355 117.195 8.2747C117.195 9.72578 116.752 10.949 115.864 11.9444C114.977 12.9397 113.802 13.5873 112.339 13.8871V14.139C113.394 14.187 114.365 14.4748 115.253 15.0024C116.152 15.5301 116.866 16.2616 117.393 17.197C117.933 18.1324 118.203 19.2118 118.203 20.435C118.203 21.8381 117.849 23.0913 117.141 24.1946C116.434 25.2859 115.397 26.1434 114.029 26.767C112.674 27.3906 111.055 27.7024 109.173 27.7024H97.5879V1.65491ZM107.733 22.7375C109.101 22.7375 110.12 22.4797 110.792 21.964C111.463 21.4363 111.799 20.6988 111.799 19.7514C111.799 18.7201 111.445 17.9046 110.738 17.305C110.03 16.6934 109.065 16.3935 107.841 16.4055H103.704V22.7375H107.733ZM107.338 12.4121C108.405 12.4001 109.268 12.1303 109.928 11.6026C110.6 11.0629 110.935 10.3374 110.935 9.42597C110.935 8.53854 110.618 7.83698 109.982 7.32131C109.358 6.80564 108.501 6.5478 107.41 6.5478H103.704V12.4121H107.338Z" fill="#002E5F"/>
<path d="M99.0938 25.5C99.0938 26.8807 97.9745 28 96.5938 28C95.213 28 94.0938 26.8807 94.0938 25.5C94.0938 24.1193 95.213 23 96.5938 23C97.9745 23 99.0938 24.1193 99.0938 25.5Z" fill="#002E5F"/>
<path d="M99.4062 25.5C99.4062 23.9467 98.1471 22.6875 96.5938 22.6875C95.0404 22.6875 93.7812 23.9467 93.7812 25.5C93.7812 27.0533 95.0404 28.3125 96.5938 28.3125C98.1471 28.3125 99.4062 27.0533 99.4062 25.5ZM101.094 25.5C101.094 27.9853 99.079 30 96.5938 30C94.1085 30 92.0938 27.9853 92.0938 25.5C92.0938 23.0147 94.1085 21 96.5938 21C99.079 21 101.094 23.0147 101.094 25.5Z" fill="white"/>
</svg>
