<svg width="186" height="30" viewBox="0 0 186 30" fill="none" xmlns="http://www.w3.org/2000/svg">
<path d="M82.8158 12.5871H82.9611L90.5559 0.885986H92.8089L84.233 14.0406L92.8089 27.1952H90.5559L82.9611 15.5668H82.8158L75.1846 27.1952H72.9316L81.6166 14.0406L72.9316 0.885986H75.221L82.8158 12.5871Z" fill="#6B4FCA"/>
<path d="M45.1309 7.46338H47.0568L51.9989 24.5062H52.1442L57.0863 7.46338H59.0123L63.918 24.4699H64.0633L69.0054 7.46338H70.9314L65.0081 27.1953H63.0459L58.1401 10.3705H57.9221L53.0164 27.1953H51.0541L45.1309 7.46338Z" fill="#6B4FCA"/>
<path d="M34.2299 27.595C32.4614 27.595 30.9049 27.165 29.5604 26.3049C28.228 25.4328 27.1923 24.2276 26.4534 22.6892C25.7267 21.1388 25.3633 19.3824 25.3633 17.4201C25.3633 15.47 25.7267 13.7196 26.4534 12.1692C27.1923 10.6066 28.2038 9.38321 29.4877 8.49897C30.7717 7.61473 32.2313 7.17261 33.8665 7.17261C35.3564 7.17261 36.7312 7.56022 37.991 8.33545C39.2628 9.09856 40.2743 10.2069 41.0253 11.6604C41.7763 13.1019 42.1518 14.8037 42.1518 16.766V17.7835H27.2166C27.2287 19.3703 27.5194 20.7815 28.0887 22.017C28.6701 23.2404 29.4877 24.1973 30.5416 24.8877C31.5954 25.5782 32.8248 25.9234 34.2299 25.9234C35.6229 25.9234 36.7736 25.6145 37.6821 24.9968C38.6027 24.379 39.281 23.6704 39.7171 22.8709H41.6794C41.3887 23.7188 40.8981 24.5062 40.2077 25.233C39.5293 25.9476 38.6754 26.523 37.6458 26.959C36.6283 27.383 35.4897 27.595 34.2299 27.595ZM40.2985 16.1483C40.2985 14.7916 40.0138 13.5561 39.4445 12.4417C38.8873 11.3273 38.1182 10.4491 37.137 9.80717C36.168 9.16518 35.0778 8.84419 33.8665 8.84419C32.6674 8.84419 31.5772 9.17124 30.5961 9.82533C29.6149 10.4673 28.8276 11.3455 28.234 12.4599C27.6405 13.5743 27.3074 14.8037 27.2347 16.1483H40.2985Z" fill="#6B4FCA"/>
<path d="M20.2407 27.1952H18.4237L2.07131 4.30183H1.88961V27.1952H0V0.885986H1.85328L18.2057 23.8157H18.3874V0.885986H20.2407V27.1952Z" fill="#6B4FCA"/>
<path d="M179.822 13.5683C179.738 12.9142 179.423 12.3933 178.878 12.0057C178.332 11.6181 177.654 11.4243 176.843 11.4243C176.067 11.4243 175.425 11.5817 174.917 11.8967C174.408 12.1995 174.153 12.6053 174.153 13.114C174.153 13.974 174.904 14.5494 176.406 14.8401L180.149 15.5669C182.112 15.9545 183.571 16.5844 184.528 17.4565C185.497 18.3286 185.988 19.4794 186 20.9087C185.988 22.229 185.594 23.3918 184.819 24.3972C184.056 25.4026 182.99 26.1839 181.621 26.7411C180.252 27.2861 178.684 27.5587 176.915 27.5587C175.062 27.5587 173.457 27.2982 172.1 26.7774C170.756 26.2565 169.702 25.5176 168.939 24.5607C168.176 23.5917 167.722 22.447 167.576 21.1267H173.681C173.802 21.8293 174.141 22.3683 174.699 22.7438C175.268 23.1072 176.019 23.2949 176.952 23.307C177.787 23.2949 178.466 23.1375 178.987 22.8346C179.507 22.5197 179.774 22.0958 179.786 21.5628C179.774 21.1146 179.568 20.7512 179.168 20.4726C178.769 20.194 178.139 19.9639 177.279 19.7822L173.899 19.1644C171.961 18.801 170.501 18.1409 169.52 17.184C168.539 16.2149 168.061 14.9734 168.085 13.4592C168.073 12.1753 168.418 11.0609 169.121 10.1161C169.823 9.17128 170.822 8.45056 172.119 7.95393C173.427 7.4573 174.965 7.20898 176.734 7.20898C178.49 7.20898 180.01 7.46336 181.294 7.9721C182.59 8.48084 183.595 9.21367 184.31 10.1706C185.037 11.1275 185.443 12.2601 185.528 13.5683H179.822Z" fill="#002E5F"/>
<path d="M156.2 27.5587C154.165 27.5587 152.396 27.1347 150.894 26.2868C149.404 25.4268 148.26 24.2337 147.46 22.7075C146.673 21.1691 146.279 19.3946 146.279 17.3838C146.279 15.3731 146.679 13.5985 147.478 12.0602C148.278 10.5219 149.423 9.32874 150.912 8.48084C152.414 7.63294 154.177 7.20898 156.2 7.20898C157.98 7.20898 159.549 7.53603 160.906 8.19013C162.262 8.84423 163.316 9.77086 164.067 10.97C164.83 12.1571 165.236 13.544 165.284 15.1308H159.579C159.446 14.1255 159.089 13.3321 158.507 12.7506C157.926 12.1692 157.181 11.8725 156.272 11.8603C155.134 11.8725 154.225 12.3509 153.547 13.2957C152.869 14.2284 152.53 15.5487 152.53 17.2566C152.53 19.0251 152.857 20.3939 153.511 21.3629C154.177 22.3198 155.085 22.7983 156.236 22.7983C157.145 22.7983 157.896 22.5197 158.489 21.9625C159.083 21.4053 159.446 20.6059 159.579 19.5642H165.284C165.236 21.1631 164.836 22.5682 164.085 23.7794C163.334 24.9786 162.28 25.9113 160.924 26.5775C159.579 27.2316 158.005 27.5587 156.2 27.5587Z" fill="#002E5F"/>
<path d="M133.963 27.5587C131.941 27.5587 130.178 27.1347 128.676 26.2868C127.186 25.4389 126.042 24.2519 125.242 22.7256C124.443 21.1873 124.043 19.4067 124.043 17.3838C124.043 15.361 124.443 13.5864 125.242 12.0602C126.042 10.5219 127.186 9.32874 128.676 8.48084C130.178 7.63294 131.941 7.20898 133.963 7.20898C135.998 7.20898 137.761 7.63294 139.251 8.48084C140.741 9.32874 141.885 10.5219 142.685 12.0602C143.484 13.5864 143.884 15.361 143.884 17.3838C143.884 19.4067 143.484 21.1873 142.685 22.7256C141.885 24.2519 140.741 25.4389 139.251 26.2868C137.761 27.1347 135.998 27.5587 133.963 27.5587ZM130.293 17.2748C130.293 18.9948 130.614 20.3697 131.256 21.3993C131.898 22.4167 132.813 22.9315 134 22.9437C135.138 22.9315 136.029 22.4228 136.671 21.4174C137.313 20.4121 137.634 19.0796 137.634 17.4202C137.634 15.7122 137.313 14.3435 136.671 13.3139C136.041 12.2843 135.151 11.7634 134 11.7513C132.825 11.7634 131.91 12.2722 131.256 13.2776C130.614 14.2829 130.293 15.6153 130.293 17.2748Z" fill="#002E5F"/>
<path d="M98.5664 27.1952V0.885986H108.196C110.861 0.885986 113.169 1.4129 115.119 2.46672C117.069 3.50843 118.565 5.01649 119.607 6.99089C120.648 8.9653 121.169 11.3152 121.169 14.0406C121.169 16.7539 120.648 19.0977 119.607 21.0721C118.565 23.0466 117.069 24.5607 115.119 25.6145C113.169 26.6683 110.861 27.1952 108.196 27.1952H98.5664ZM107.978 21.8898C110.304 21.9019 112.048 21.2902 113.211 20.0547C114.374 18.8191 114.955 16.8145 114.955 14.0406C114.955 11.2546 114.368 9.24995 113.193 8.02655C112.03 6.79103 110.267 6.16721 107.905 6.1551H104.744V21.8898H107.978Z" fill="#002E5F"/>
<path d="M100.64 24.8695C100.64 26.475 99.3388 27.7766 97.7333 27.7766C96.1277 27.7766 94.8262 26.475 94.8262 24.8695C94.8262 23.264 96.1277 21.9624 97.7333 21.9624C99.3388 21.9624 100.64 23.264 100.64 24.8695Z" fill="#002E5F"/>
<path d="M100.639 24.8696C100.639 23.2641 99.337 21.9625 97.7314 21.9625C96.1259 21.9625 94.8243 23.2641 94.8243 24.8696C94.8243 26.4752 96.1259 27.7767 97.7314 27.7767C99.337 27.7767 100.639 26.4752 100.639 24.8696ZM102.383 24.8696C102.383 27.4385 100.3 29.521 97.7314 29.521C95.1626 29.521 93.0801 27.4385 93.0801 24.8696C93.0801 22.3007 95.1626 20.2183 97.7314 20.2183C100.3 20.2183 102.383 22.3007 102.383 24.8696Z" fill="white"/>
</svg>
