<svg width="328" height="64" viewBox="0 0 328 64" fill="none" xmlns="http://www.w3.org/2000/svg">
<path d="M40.7188 55H37.5938L9.46875 15.625H9.15625V55H5.90625V9.75H9.09375L37.2188 49.1875H37.5312V9.75H40.7188V55ZM64.7812 55.6875C61.7396 55.6875 59.0625 54.9479 56.75 53.4688C54.4583 51.9688 52.6771 49.8958 51.4062 47.25C50.1562 44.5833 49.5312 41.5625 49.5312 38.1875C49.5312 34.8333 50.1562 31.8229 51.4062 29.1562C52.6771 26.4688 54.4167 24.3646 56.625 22.8438C58.8333 21.3229 61.3438 20.5625 64.1562 20.5625C66.7188 20.5625 69.0833 21.2292 71.25 22.5625C73.4375 23.875 75.1771 25.7812 76.4688 28.2812C77.7604 30.7604 78.4062 33.6875 78.4062 37.0625V38.8125H52.7188C52.7396 41.5417 53.2396 43.9688 54.2188 46.0938C55.2188 48.1979 56.625 49.8438 58.4375 51.0312C60.25 52.2188 62.3646 52.8125 64.7812 52.8125C67.1771 52.8125 69.1562 52.2812 70.7188 51.2188C72.3021 50.1562 73.4688 48.9375 74.2188 47.5625H77.5938C77.0938 49.0208 76.25 50.375 75.0625 51.625C73.8958 52.8542 72.4271 53.8438 70.6562 54.5938C68.9062 55.3229 66.9479 55.6875 64.7812 55.6875ZM75.2188 36C75.2188 33.6667 74.7292 31.5417 73.75 29.625C72.7917 27.7083 71.4688 26.1979 69.7812 25.0938C68.1146 23.9896 66.2396 23.4375 64.1562 23.4375C62.0938 23.4375 60.2188 24 58.5312 25.125C56.8438 26.2292 55.4896 27.7396 54.4688 29.6562C53.4479 31.5729 52.875 33.6875 52.75 36H75.2188ZM83.5312 21.0625H86.8438L95.3438 50.375H95.5938L104.094 21.0625H107.406L115.844 50.3125H116.094L124.594 21.0625H127.906L117.719 55H114.344L105.906 26.0625H105.531L97.0938 55H93.7188L83.5312 21.0625ZM148.344 29.875H148.594L161.656 9.75H165.531L150.781 32.375L165.531 55H161.656L148.594 35H148.344L135.219 55H131.344L146.281 32.375L131.344 9.75H135.281L148.344 29.875Z" fill="#6B4FCA"/>
<path d="M175.438 55V9.75H192C196.583 9.75 200.552 10.6562 203.906 12.4688C207.26 14.2604 209.833 16.8542 211.625 20.25C213.417 23.6458 214.312 27.6875 214.312 32.375C214.312 37.0417 213.417 41.0729 211.625 44.4688C209.833 47.8646 207.26 50.4688 203.906 52.2812C200.552 54.0938 196.583 55 192 55H175.438ZM191.625 45.875C195.625 45.8958 198.625 44.8438 200.625 42.7188C202.625 40.5938 203.625 37.1458 203.625 32.375C203.625 27.5833 202.615 24.1354 200.594 22.0312C198.594 19.9062 195.562 18.8333 191.5 18.8125H186.062V45.875H191.625ZM236.312 55.625C232.833 55.625 229.802 54.8958 227.219 53.4375C224.656 51.9792 222.688 49.9375 221.312 47.3125C219.938 44.6667 219.25 41.6042 219.25 38.125C219.25 34.6458 219.938 31.5938 221.312 28.9688C222.688 26.3229 224.656 24.2708 227.219 22.8125C229.802 21.3542 232.833 20.625 236.312 20.625C239.812 20.625 242.844 21.3542 245.406 22.8125C247.969 24.2708 249.938 26.3229 251.312 28.9688C252.688 31.5938 253.375 34.6458 253.375 38.125C253.375 41.6042 252.688 44.6667 251.312 47.3125C249.938 49.9375 247.969 51.9792 245.406 53.4375C242.844 54.8958 239.812 55.625 236.312 55.625ZM230 37.9375C230 40.8958 230.552 43.2604 231.656 45.0312C232.76 46.7812 234.333 47.6667 236.375 47.6875C238.333 47.6667 239.865 46.7917 240.969 45.0625C242.073 43.3333 242.625 41.0417 242.625 38.1875C242.625 35.25 242.073 32.8958 240.969 31.125C239.885 29.3542 238.354 28.4583 236.375 28.4375C234.354 28.4583 232.781 29.3333 231.656 31.0625C230.552 32.7917 230 35.0833 230 37.9375ZM274.562 55.625C271.062 55.625 268.021 54.8958 265.438 53.4375C262.875 51.9583 260.906 49.9062 259.531 47.2812C258.177 44.6354 257.5 41.5833 257.5 38.125C257.5 34.6667 258.188 31.6146 259.562 28.9688C260.938 26.3229 262.906 24.2708 265.469 22.8125C268.052 21.3542 271.083 20.625 274.562 20.625C277.625 20.625 280.323 21.1875 282.656 22.3125C284.99 23.4375 286.802 25.0312 288.094 27.0938C289.406 29.1354 290.104 31.5208 290.188 34.25H280.375C280.146 32.5208 279.531 31.1562 278.531 30.1562C277.531 29.1562 276.25 28.6458 274.688 28.625C272.729 28.6458 271.167 29.4688 270 31.0938C268.833 32.6979 268.25 34.9688 268.25 37.9062C268.25 40.9479 268.812 43.3021 269.938 44.9688C271.083 46.6146 272.646 47.4375 274.625 47.4375C276.188 47.4375 277.479 46.9583 278.5 46C279.521 45.0417 280.146 43.6667 280.375 41.875H290.188C290.104 44.625 289.417 47.0417 288.125 49.125C286.833 51.1875 285.021 52.7917 282.688 53.9375C280.375 55.0625 277.667 55.625 274.562 55.625ZM315.188 31.5625C315.042 30.4375 314.5 29.5417 313.562 28.875C312.625 28.2083 311.458 27.875 310.062 27.875C308.729 27.875 307.625 28.1458 306.75 28.6875C305.875 29.2083 305.438 29.9062 305.438 30.7812C305.438 32.2604 306.729 33.25 309.312 33.75L315.75 35C319.125 35.6667 321.635 36.75 323.281 38.25C324.948 39.75 325.792 41.7292 325.812 44.1875C325.792 46.4583 325.115 48.4583 323.781 50.1875C322.469 51.9167 320.635 53.2604 318.281 54.2188C315.927 55.1562 313.229 55.625 310.188 55.625C307 55.625 304.24 55.1771 301.906 54.2812C299.594 53.3854 297.781 52.1146 296.469 50.4688C295.156 48.8021 294.375 46.8333 294.125 44.5625H304.625C304.833 45.7708 305.417 46.6979 306.375 47.3438C307.354 47.9688 308.646 48.2917 310.25 48.3125C311.688 48.2917 312.854 48.0208 313.75 47.5C314.646 46.9583 315.104 46.2292 315.125 45.3125C315.104 44.5417 314.75 43.9167 314.062 43.4375C313.375 42.9583 312.292 42.5625 310.812 42.25L305 41.1875C301.667 40.5625 299.156 39.4271 297.469 37.7812C295.781 36.1146 294.958 33.9792 295 31.375C294.979 29.1667 295.573 27.25 296.781 25.625C297.99 24 299.708 22.7604 301.938 21.9062C304.188 21.0521 306.833 20.625 309.875 20.625C312.896 20.625 315.51 21.0625 317.719 21.9375C319.948 22.8125 321.677 24.0729 322.906 25.7188C324.156 27.3646 324.854 29.3125 325 31.5625H315.188Z" fill="#002E5F"/>
<circle cx="174" cy="51" r="6.5" fill="#002E5F" stroke="white" stroke-width="3"/>
</svg>
