<svg width="387" height="64" viewBox="0 0 387 64" fill="none" xmlns="http://www.w3.org/2000/svg">
<path d="M40.7188 55H37.5938L9.46875 15.625H9.15625V55H5.90625V9.75H9.09375L37.2188 49.1875H37.5312V9.75H40.7188V55ZM64.7812 55.6875C61.7396 55.6875 59.0625 54.9479 56.75 53.4688C54.4583 51.9688 52.6771 49.8958 51.4062 47.25C50.1562 44.5833 49.5312 41.5625 49.5312 38.1875C49.5312 34.8333 50.1562 31.8229 51.4062 29.1562C52.6771 26.4688 54.4167 24.3646 56.625 22.8438C58.8333 21.3229 61.3438 20.5625 64.1562 20.5625C66.7188 20.5625 69.0833 21.2292 71.25 22.5625C73.4375 23.875 75.1771 25.7812 76.4688 28.2812C77.7604 30.7604 78.4062 33.6875 78.4062 37.0625V38.8125H52.7188C52.7396 41.5417 53.2396 43.9688 54.2188 46.0938C55.2188 48.1979 56.625 49.8438 58.4375 51.0312C60.25 52.2188 62.3646 52.8125 64.7812 52.8125C67.1771 52.8125 69.1562 52.2812 70.7188 51.2188C72.3021 50.1562 73.4688 48.9375 74.2188 47.5625H77.5938C77.0938 49.0208 76.25 50.375 75.0625 51.625C73.8958 52.8542 72.4271 53.8438 70.6562 54.5938C68.9062 55.3229 66.9479 55.6875 64.7812 55.6875ZM75.2188 36C75.2188 33.6667 74.7292 31.5417 73.75 29.625C72.7917 27.7083 71.4688 26.1979 69.7812 25.0938C68.1146 23.9896 66.2396 23.4375 64.1562 23.4375C62.0938 23.4375 60.2188 24 58.5312 25.125C56.8438 26.2292 55.4896 27.7396 54.4688 29.6562C53.4479 31.5729 52.875 33.6875 52.75 36H75.2188ZM83.5312 21.0625H86.8438L95.3438 50.375H95.5938L104.094 21.0625H107.406L115.844 50.3125H116.094L124.594 21.0625H127.906L117.719 55H114.344L105.906 26.0625H105.531L97.0938 55H93.7188L83.5312 21.0625ZM148.344 29.875H148.594L161.656 9.75H165.531L150.781 32.375L165.531 55H161.656L148.594 35H148.344L135.219 55H131.344L146.281 32.375L131.344 9.75H135.281L148.344 29.875Z" fill="#6B4FCA"/>
<path d="M199.875 23.1875C199.729 21.5208 199.052 20.2292 197.844 19.3125C196.635 18.3958 194.958 17.9375 192.812 17.9375C190.688 17.9375 189.062 18.3542 187.938 19.1875C186.812 20.0208 186.25 21.1146 186.25 22.4688C186.25 23.7604 186.823 24.7917 187.969 25.5625C189.135 26.3333 190.812 26.9583 193 27.4375L196.938 28.375C201.396 29.3542 204.802 30.9688 207.156 33.2188C209.531 35.4479 210.729 38.3333 210.75 41.875C210.75 44.7083 210.031 47.1562 208.594 49.2188C207.177 51.2812 205.125 52.8646 202.438 53.9688C199.75 55.0729 196.542 55.625 192.812 55.625C189 55.6042 185.698 55.0208 182.906 53.875C180.135 52.7292 177.979 51 176.438 48.6875C174.917 46.375 174.125 43.5208 174.062 40.125H184.312C184.438 42.2708 185.24 43.9167 186.719 45.0625C188.219 46.1875 190.208 46.75 192.688 46.75C194.917 46.75 196.667 46.3125 197.938 45.4375C199.229 44.5417 199.896 43.3542 199.938 41.875C199.917 40.5833 199.323 39.5521 198.156 38.7812C196.99 38.0104 195.125 37.3333 192.562 36.75L187.812 35.625C179.438 33.6667 175.25 29.5 175.25 23.125C175.25 20.375 176 17.9375 177.5 15.8125C179 13.6875 181.083 12.0417 183.75 10.875C186.438 9.70833 189.479 9.125 192.875 9.125C196.312 9.125 199.323 9.71875 201.906 10.9062C204.51 12.0729 206.521 13.7188 207.938 15.8438C209.375 17.9688 210.104 20.4167 210.125 23.1875H199.875ZM232 55.625C228.479 55.625 225.427 54.9271 222.844 53.5312C220.281 52.1146 218.312 50.1042 216.938 47.5C215.562 44.875 214.875 41.7708 214.875 38.1875C214.875 34.7083 215.562 31.6458 216.938 29C218.312 26.3333 220.26 24.2708 222.781 22.8125C225.323 21.3542 228.271 20.625 231.625 20.625C234.833 20.625 237.667 21.2917 240.125 22.625C242.604 23.9583 244.531 25.9271 245.906 28.5312C247.302 31.1354 248 34.2708 248 37.9375V40.625H225.25V40.8125C225.271 43 225.896 44.75 227.125 46.0625C228.375 47.3542 230.062 48 232.188 48C233.604 48 234.833 47.7083 235.875 47.125C236.917 46.5417 237.646 45.75 238.062 44.75H247.875C247.438 46.9583 246.521 48.8854 245.125 50.5312C243.75 52.1562 241.938 53.4167 239.688 54.3125C237.458 55.1875 234.896 55.625 232 55.625ZM238.188 34.4375C238.167 33.25 237.885 32.1875 237.344 31.25C236.802 30.3125 236.052 29.5833 235.094 29.0625C234.135 28.5208 233.062 28.25 231.875 28.25C230.667 28.25 229.562 28.5208 228.562 29.0625C227.583 29.6042 226.792 30.3438 226.188 31.2812C225.604 32.2188 225.292 33.2708 225.25 34.4375H238.188ZM251.875 45.5625C251.854 42.0625 253 39.4792 255.312 37.8125C257.625 36.125 260.667 35.1667 264.438 34.9375C266.271 34.8125 268.562 34.7083 271.312 34.625L272.562 34.5625V31.8125C272.562 30.6458 272.156 29.7396 271.344 29.0938C270.552 28.4479 269.448 28.125 268.031 28.125C266.594 28.125 265.438 28.4167 264.562 29C263.688 29.5833 263.146 30.4375 262.938 31.5625H253.125C253.292 29.5208 253.969 27.6771 255.156 26.0312C256.365 24.3646 258.073 23.0521 260.281 22.0938C262.49 21.1146 265.125 20.625 268.188 20.625C271.021 20.625 273.562 21.0625 275.812 21.9375C278.062 22.8125 279.844 24.1042 281.156 25.8125C282.469 27.5208 283.125 29.5625 283.125 31.9375V55H273.188V50.25H272.938C272 52 270.708 53.3333 269.062 54.25C267.417 55.1458 265.417 55.6042 263.062 55.625C260.854 55.6042 258.906 55.2188 257.219 54.4688C255.531 53.7188 254.219 52.5938 253.281 51.0938C252.344 49.5938 251.875 47.75 251.875 45.5625ZM261.875 45.1875C261.875 46.2917 262.271 47.1458 263.062 47.75C263.875 48.3333 264.938 48.625 266.25 48.625C267.438 48.625 268.521 48.3854 269.5 47.9062C270.479 47.4062 271.24 46.7292 271.781 45.875C272.344 45 272.625 44.0208 272.625 42.9375V40.75C271.75 40.7708 270.646 40.8229 269.312 40.9062C267.979 40.9688 266.938 41.0417 266.188 41.125C264.833 41.2708 263.771 41.6979 263 42.4062C262.25 43.1146 261.875 44.0417 261.875 45.1875ZM289.562 21.0625H299.812V27.1875H300.125C300.729 25.0208 301.729 23.3854 303.125 22.2812C304.542 21.1562 306.208 20.5833 308.125 20.5625C309.104 20.6042 310.104 20.7292 311.125 20.9375V30.125C310.625 29.9792 309.958 29.8646 309.125 29.7812C308.312 29.6771 307.562 29.625 306.875 29.625C305.583 29.625 304.417 29.9167 303.375 30.5C302.354 31.0625 301.552 31.8646 300.969 32.9062C300.406 33.9271 300.125 35.1042 300.125 36.4375V55H289.562V21.0625ZM330.062 55.625C326.562 55.625 323.521 54.8958 320.938 53.4375C318.375 51.9583 316.406 49.9062 315.031 47.2812C313.677 44.6354 313 41.5833 313 38.125C313 34.6667 313.688 31.6146 315.062 28.9688C316.438 26.3229 318.406 24.2708 320.969 22.8125C323.552 21.3542 326.583 20.625 330.062 20.625C333.125 20.625 335.823 21.1875 338.156 22.3125C340.49 23.4375 342.302 25.0312 343.594 27.0938C344.906 29.1354 345.604 31.5208 345.688 34.25H335.875C335.646 32.5208 335.031 31.1562 334.031 30.1562C333.031 29.1562 331.75 28.6458 330.188 28.625C328.229 28.6458 326.667 29.4688 325.5 31.0938C324.333 32.6979 323.75 34.9688 323.75 37.9062C323.75 40.9479 324.312 43.3021 325.438 44.9688C326.583 46.6146 328.146 47.4375 330.125 47.4375C331.688 47.4375 332.979 46.9583 334 46C335.021 45.0417 335.646 43.6667 335.875 41.875H345.688C345.604 44.625 344.917 47.0417 343.625 49.125C342.333 51.1875 340.521 52.7917 338.188 53.9375C335.875 55.0625 333.167 55.625 330.062 55.625ZM361.688 55H351.125V9.75H361.312V27.25H361.688C362.479 25.1458 363.75 23.5208 365.5 22.375C367.25 21.2083 369.375 20.625 371.875 20.625C374.25 20.625 376.323 21.1562 378.094 22.2188C379.885 23.2604 381.26 24.7396 382.219 26.6562C383.198 28.5729 383.688 30.8125 383.688 33.375V55H373.125V35.375C373.146 33.4583 372.667 31.9688 371.688 30.9062C370.708 29.8229 369.333 29.2708 367.562 29.25C365.792 29.2708 364.365 29.8438 363.281 30.9688C362.219 32.0938 361.688 33.625 361.688 35.5625V55Z" fill="#002E5F"/>
<circle cx="174" cy="51" r="6.5" fill="#002E5F" stroke="white" stroke-width="3"/>
</svg>
