<svg width="166" height="27" viewBox="0 0 166 27" fill="none" xmlns="http://www.w3.org/2000/svg">
<path d="M78.6862 11.4629H78.8243L86.0404 0.345215H88.1811L80.0328 12.8439L88.1811 25.3427H86.0404L78.8243 14.2941H78.6862L71.4356 25.3427H69.2949L77.5468 12.8439L69.2949 0.345215H71.4701L78.6862 11.4629Z" fill="#6B4FCA"/>
<path d="M42.8828 6.5946H44.7127L49.4084 22.7877H49.5465L54.2421 6.5946H56.0721L60.7332 22.7532H60.8713L65.567 6.5946H67.3969L61.769 25.3427H59.9046L55.2434 9.35675H55.0363L50.3751 25.3427H48.5107L42.8828 6.5946Z" fill="#6B4FCA"/>
<path d="M32.5242 25.7225C30.8439 25.7225 29.365 25.3139 28.0875 24.4967C26.8215 23.6681 25.8375 22.523 25.1354 21.0613C24.4449 19.5882 24.0996 17.9194 24.0996 16.0549C24.0996 14.202 24.4449 12.5389 25.1354 11.0658C25.8375 9.58115 26.7985 8.41874 28.0184 7.57859C29.2384 6.73844 30.6252 6.31836 32.1789 6.31836C33.5945 6.31836 34.9008 6.68665 36.0977 7.42322C37.3061 8.14828 38.2671 9.20135 38.9807 10.5824C39.6942 11.952 40.051 13.569 40.051 15.4334V16.4002H25.8605C25.872 17.9079 26.1482 19.2487 26.6891 20.4226C27.2416 21.585 28.0184 22.4942 29.0197 23.1502C30.021 23.8062 31.1891 24.1342 32.5242 24.1342C33.8477 24.1342 34.941 23.8407 35.8042 23.2538C36.6789 22.6668 37.3234 21.9935 37.7377 21.234H39.6022C39.326 22.0396 38.8598 22.7877 38.2038 23.4782C37.5593 24.1572 36.7479 24.7039 35.7697 25.1182C34.8029 25.521 33.7211 25.7225 32.5242 25.7225ZM38.2901 14.8465C38.2901 13.5575 38.0197 12.3836 37.4788 11.3248C36.9494 10.2659 36.2185 9.43153 35.2863 8.82156C34.3656 8.21158 33.3298 7.90659 32.1789 7.90659C31.0395 7.90659 30.0037 8.21734 29.0715 8.83882C28.1393 9.44879 27.3912 10.2832 26.8272 11.342C26.2633 12.4008 25.9468 13.569 25.8777 14.8465H38.2901Z" fill="#6B4FCA"/>
<path d="M19.2315 25.3427H17.5051L1.96803 3.59074H1.7954V25.3427H0V0.345215H1.76087L17.298 22.1317H17.4706V0.345215H19.2315V25.3427Z" fill="#6B4FCA"/>
<path d="M159.497 8.49361C159.21 7.43478 158.652 6.61765 157.823 6.0422C157.006 5.45524 155.987 5.16752 154.767 5.17903C153.547 5.17903 152.483 5.47826 151.574 6.07673C150.676 6.67519 149.98 7.54987 149.485 8.70077C149.001 9.84015 148.76 11.2097 148.76 12.8095C148.76 14.4322 148.996 15.8191 149.467 16.9699C149.951 18.1208 150.641 19.0013 151.539 19.6113C152.437 20.2097 153.513 20.509 154.767 20.509C156.413 20.509 157.691 20.1119 158.6 19.3178C159.52 18.5237 160.004 17.4361 160.05 16.055H155.009V11.7391H165.712V15.0192C165.712 17.1944 165.246 19.0876 164.314 20.6988C163.382 22.3101 162.087 23.5473 160.43 24.4105C158.772 25.2621 156.873 25.688 154.733 25.688C152.362 25.688 150.273 25.1701 148.466 24.1343C146.659 23.0985 145.255 21.6138 144.254 19.6803C143.253 17.7468 142.752 15.4795 142.752 12.8785C142.752 10.2315 143.27 7.93542 144.306 5.99041C145.353 4.0454 146.774 2.56074 148.57 1.53645C150.377 0.512148 152.396 0 154.629 0C156.528 0 158.26 0.362532 159.825 1.0876C161.402 1.80115 162.685 2.80243 163.675 4.09143C164.665 5.38043 165.263 6.84783 165.471 8.49361H159.497Z" fill="#002E5F"/>
<path d="M116.822 25.3427L125.316 0.345215H133.119L141.578 25.3427H135.26L133.568 19.991H124.867L123.175 25.3427H116.822ZM132.152 15.5025L129.321 6.52552H129.114L126.283 15.5025H132.152Z" fill="#002E5F"/>
<path d="M105.601 0.345215C107.465 0.345215 109.077 0.684741 110.435 1.36377C111.804 2.03124 112.851 2.99225 113.576 4.24658C114.313 5.48947 114.682 6.95118 114.682 8.63135C114.693 10.3346 114.324 11.7962 113.576 13.0161C112.828 14.236 111.753 15.1634 110.349 15.7964L115.579 25.3423H109.122L104.53 16.7456H101.25V25.3423H97.9854C98.1364 24.8968 98.2197 24.4199 98.2197 23.9233C98.2197 22.0395 97.0409 20.4314 95.3809 19.7954V0.345215H105.601ZM101.25 12.0503H104.357C107.189 12.0733 108.604 10.9331 108.604 8.63135C108.604 7.4576 108.242 6.57762 107.517 5.99072C106.803 5.4038 105.75 5.10986 104.357 5.10986H101.25V12.0503Z" fill="#002E5F"/>
<circle cx="92.9653" cy="24.2379" r="2.76215" fill="#002E5F"/>
</svg>
