<svg width="309" height="64" viewBox="0 0 309 64" fill="none" xmlns="http://www.w3.org/2000/svg">
<path d="M40.7188 55H37.5938L9.46875 15.625H9.15625V55H5.90625V9.75H9.09375L37.2188 49.1875H37.5312V9.75H40.7188V55ZM64.7812 55.6875C61.7396 55.6875 59.0625 54.9479 56.75 53.4688C54.4583 51.9688 52.6771 49.8958 51.4062 47.25C50.1562 44.5833 49.5312 41.5625 49.5312 38.1875C49.5312 34.8333 50.1562 31.8229 51.4062 29.1562C52.6771 26.4688 54.4167 24.3646 56.625 22.8438C58.8333 21.3229 61.3438 20.5625 64.1562 20.5625C66.7188 20.5625 69.0833 21.2292 71.25 22.5625C73.4375 23.875 75.1771 25.7812 76.4688 28.2812C77.7604 30.7604 78.4062 33.6875 78.4062 37.0625V38.8125H52.7188C52.7396 41.5417 53.2396 43.9688 54.2188 46.0938C55.2188 48.1979 56.625 49.8438 58.4375 51.0312C60.25 52.2188 62.3646 52.8125 64.7812 52.8125C67.1771 52.8125 69.1562 52.2812 70.7188 51.2188C72.3021 50.1562 73.4688 48.9375 74.2188 47.5625H77.5938C77.0938 49.0208 76.25 50.375 75.0625 51.625C73.8958 52.8542 72.4271 53.8438 70.6562 54.5938C68.9062 55.3229 66.9479 55.6875 64.7812 55.6875ZM75.2188 36C75.2188 33.6667 74.7292 31.5417 73.75 29.625C72.7917 27.7083 71.4688 26.1979 69.7812 25.0938C68.1146 23.9896 66.2396 23.4375 64.1562 23.4375C62.0938 23.4375 60.2188 24 58.5312 25.125C56.8438 26.2292 55.4896 27.7396 54.4688 29.6562C53.4479 31.5729 52.875 33.6875 52.75 36H75.2188ZM83.5312 21.0625H86.8438L95.3438 50.375H95.5938L104.094 21.0625H107.406L115.844 50.3125H116.094L124.594 21.0625H127.906L117.719 55H114.344L105.906 26.0625H105.531L97.0938 55H93.7188L83.5312 21.0625ZM148.344 29.875H148.594L161.656 9.75H165.531L150.781 32.375L165.531 55H161.656L148.594 35H148.344L135.219 55H131.344L146.281 32.375L131.344 9.75H135.281L148.344 29.875Z" fill="#6B4FCA"/>
<path d="M178.562 9.75H197.062C200.438 9.75 203.354 10.3646 205.812 11.5938C208.292 12.8021 210.188 14.5417 211.5 16.8125C212.833 19.0625 213.5 21.7083 213.5 24.75C213.521 27.8333 212.854 30.4792 211.5 32.6875C210.146 34.8958 208.198 36.5729 205.656 37.7188L215.125 55H203.438L195.125 39.4375H189.188V55H178.562V9.75ZM194.812 30.9375C199.938 30.9792 202.5 28.9167 202.5 24.75C202.5 22.625 201.844 21.0312 200.531 19.9688C199.24 18.9062 197.333 18.375 194.812 18.375H189.188V30.9375H194.812ZM217.375 55L232.75 9.75H246.875L262.188 55H250.75L247.688 45.3125H231.938L228.875 55H217.375ZM245.125 37.1875L240 20.9375H239.625L234.5 37.1875H245.125ZM294.625 24.5C294.104 22.5833 293.094 21.1042 291.594 20.0625C290.115 19 288.271 18.4792 286.062 18.5C283.854 18.5 281.927 19.0417 280.281 20.125C278.656 21.2083 277.396 22.7917 276.5 24.875C275.625 26.9375 275.188 29.4167 275.188 32.3125C275.188 35.25 275.615 37.7604 276.469 39.8438C277.344 41.9271 278.594 43.5208 280.219 44.625C281.844 45.7083 283.792 46.25 286.062 46.25C289.042 46.25 291.354 45.5312 293 44.0938C294.667 42.6562 295.542 40.6875 295.625 38.1875H286.5V30.375H305.875V36.3125C305.875 40.25 305.031 43.6771 303.344 46.5938C301.656 49.5104 299.312 51.75 296.312 53.3125C293.312 54.8542 289.875 55.625 286 55.625C281.708 55.625 277.927 54.6875 274.656 52.8125C271.385 50.9375 268.844 48.25 267.031 44.75C265.219 41.25 264.312 37.1458 264.312 32.4375C264.312 27.6458 265.25 23.4896 267.125 19.9688C269.021 16.4479 271.594 13.7604 274.844 11.9062C278.115 10.0521 281.771 9.125 285.812 9.125C289.25 9.125 292.385 9.78125 295.219 11.0938C298.073 12.3854 300.396 14.1979 302.188 16.5312C303.979 18.8646 305.062 21.5208 305.438 24.5H294.625Z" fill="#002E5F"/>
<circle cx="174" cy="51" r="6.5" fill="#002E5F" stroke="white" stroke-width="3"/>
</svg>
