<svg width="32" height="32" viewBox="0 0 32 32" fill="none" xmlns="http://www.w3.org/2000/svg">
<rect x="0.5" y="0.5" width="31" height="31" rx="15.5" fill="white"/>
<rect x="0.5" y="0.5" width="31" height="31" rx="15.5" stroke="#D4D4D4"/>
<path d="M14.2977 22.9997C14.6471 22.9997 14.9234 22.849 15.1184 22.5555L22.7968 10.7531C22.9431 10.5231 23 10.3486 23 10.1661C23 9.72988 22.7075 9.44434 22.2606 9.44434C21.9355 9.44434 21.7568 9.54745 21.5618 9.84886L14.2652 21.1992L10.4788 16.3608C10.2757 16.0832 10.0726 15.9722 9.78004 15.9722C9.31689 15.9722 9 16.2815 9 16.7177C9 16.9002 9.08125 17.1065 9.23564 17.2968L13.4527 22.5397C13.6965 22.849 13.9483 22.9997 14.2977 22.9997Z" fill="#D4D4D4"/>
</svg>
