<svg width="217" height="28" viewBox="0 0 217 28" fill="none" xmlns="http://www.w3.org/2000/svg">
<g clip-path="url(#clip0_8247_1809)">
<path d="M93.7285 4.4482H96.3903V19.1235H93.7285V11.3029H91.9147C91.8676 11.7152 91.7734 12.1078 91.6321 12.4886C91.3651 13.1678 90.9843 13.7685 90.4896 14.2867C89.9949 14.8088 89.4178 15.2171 88.7583 15.5194C88.0987 15.8178 87.4077 15.9709 86.6854 15.9709C85.9002 15.9709 85.1817 15.8217 84.53 15.5234C83.8783 15.225 83.3169 14.8206 82.8458 14.3102C82.3746 13.7999 82.0095 13.1992 81.7504 12.5082C81.4913 11.8172 81.3617 11.0792 81.3617 10.294C81.3617 9.50878 81.4952 8.82173 81.7622 8.13861C82.0292 7.4555 82.3982 6.8509 82.8693 6.32482C83.3404 5.79874 83.9018 5.38259 84.5535 5.07636C85.2053 4.77013 85.9159 4.61702 86.6854 4.61702C87.392 4.61702 88.0751 4.77013 88.7347 5.07636C89.3943 5.38259 89.9675 5.79481 90.4543 6.31304C90.9411 6.83127 91.3258 7.43587 91.6085 8.12684C91.7341 8.44091 91.8284 8.76284 91.8912 9.09262H93.7285V4.45213V4.4482ZM89.3 10.2665C89.3 9.86211 89.249 9.45381 89.1469 9.04944C89.0449 8.64506 88.8878 8.27602 88.6758 7.95017C88.4638 7.62039 88.1929 7.35342 87.8631 7.14142C87.5334 6.92942 87.1408 6.82734 86.6854 6.82734C86.2299 6.82734 85.8334 6.93334 85.4958 7.14142C85.1582 7.35342 84.8794 7.62039 84.6596 7.95017C84.4397 8.27602 84.2787 8.64899 84.1767 9.06122C84.0746 9.47344 84.0235 9.88174 84.0235 10.29C84.0235 10.7886 84.0864 11.248 84.212 11.672C84.3376 12.0921 84.5182 12.4611 84.7538 12.7713C84.9893 13.0814 85.272 13.3248 85.6018 13.4976C85.9316 13.6703 86.2928 13.7567 86.6854 13.7567C87.0308 13.7567 87.3606 13.6782 87.6747 13.5211C87.9888 13.3641 88.2675 13.1403 88.5109 12.8419C88.7543 12.5475 88.9467 12.1824 89.088 11.7544C89.2294 11.3265 89.3 10.8318 89.3 10.2704V10.2665ZM89.8889 23.7169H101.007V25.9311H87.2271V18.3226H89.8889V23.7169ZM97.8744 4.21265H100.536V19.5946H97.8744V4.21265Z" fill="white"/>
<path d="M117.002 13.9882L115.545 15.8727C114.587 15.4172 113.653 14.8401 112.734 14.1413C111.815 13.4425 111.054 12.7083 110.441 11.9388C110.206 12.2843 109.907 12.6455 109.546 13.0224C109.185 13.3993 108.781 13.7801 108.333 14.1649C107.886 14.5496 107.403 14.9226 106.881 15.2838C106.362 15.6449 105.821 15.9747 105.251 16.2731L103.622 14.318C104.439 13.8783 105.192 13.415 105.883 12.9282C106.574 12.4414 107.171 11.9035 107.674 11.3146C108.176 10.7257 108.569 10.0701 108.851 9.34769C109.134 8.62532 109.275 7.80086 109.275 6.87433V4.68364H111.937V6.96856C111.937 7.43967 111.918 7.87938 111.878 8.28768C111.839 8.69598 111.757 9.09643 111.631 9.48903C111.929 9.99155 112.291 10.4627 112.711 10.9024C113.131 11.3421 113.586 11.7504 114.069 12.1273C114.552 12.5042 115.047 12.8497 115.545 13.1637C116.044 13.4778 116.531 13.7526 116.998 13.9882H117.002ZM108.522 17.6393H121.878V26.0959H108.522V17.6393ZM111.183 19.8536V23.8816H119.216V19.8536H111.183ZM121.878 8.7588H125.812V10.973H121.878V16.8384H119.216V4.23608H121.878V8.7588Z" fill="white"/>
<path d="M127.107 12.3158H141.194C141.256 12.1588 141.311 11.9978 141.358 11.8408C141.515 11.299 141.649 10.7533 141.759 10.1958H131.135V7.98157H142.112C142.144 7.69891 142.167 7.40838 142.183 7.11001C142.199 6.81164 142.206 6.58393 142.206 6.42689H130.688V4.21265H144.868C144.9 5.97148 144.782 7.61253 144.515 9.13581C144.326 10.2351 144.075 11.2951 143.761 12.3158H148.402V14.5301H127.107V12.3158ZM133.42 23.9289H144.986V26.096H130.758V20.1364H142.089V18.6759H130.758V16.5088H144.75V22.3035H133.42V23.9289Z" fill="white"/>
<path d="M164.914 26.0724V19.1941C164.632 19.2255 164.365 19.257 164.113 19.2884C163.391 19.3669 162.688 19.4258 162.005 19.465C161.322 19.5043 160.635 19.5278 159.944 19.5357C159.253 19.5435 158.499 19.5475 157.683 19.5475H150.804V10.8554H158.601V7.58113H150.804V5.36688H161.263V13.0696H153.466V17.3332H159.944C160.635 17.3332 161.318 17.3097 161.993 17.2626C162.669 17.2155 163.367 17.1369 164.09 17.027C164.357 16.9956 164.632 16.9563 164.914 16.9092V4.21265H167.576V10.6434H171.51V12.8576H167.576V26.0724H164.914Z" fill="white"/>
<path d="M172.801 16.3203H194.096V18.5346H184.791V26.0489H182.13V18.5346H172.801V16.3203ZM176.453 9.3478C176.453 8.48409 176.672 7.72638 177.112 7.07467C177.552 6.42296 178.113 5.88118 178.796 5.44932C179.48 5.01746 180.233 4.69553 181.058 4.48353C181.882 4.27153 182.679 4.16553 183.449 4.16553C184.218 4.16553 185.015 4.27153 185.84 4.48353C186.664 4.69553 187.418 5.01746 188.101 5.44932C188.784 5.88118 189.349 6.42296 189.797 7.07467C190.245 7.72638 190.468 8.48409 190.468 9.3478C190.468 10.2115 190.248 10.9692 189.809 11.6209C189.369 12.2727 188.808 12.8144 188.125 13.2463C187.441 13.6781 186.684 14.0001 185.851 14.2121C185.019 14.4241 184.218 14.5301 183.449 14.5301C182.679 14.5301 181.859 14.4241 181.034 14.2121C180.21 14.0001 179.456 13.6821 178.773 13.2581C178.09 12.8341 177.532 12.2962 177.1 11.6445C176.669 10.9928 176.453 10.2272 176.453 9.3478ZM179.118 9.3478C179.118 9.89744 179.26 10.3607 179.546 10.7376C179.829 11.1145 180.186 11.4207 180.61 11.6563C181.038 11.8918 181.501 12.0606 182.008 12.1627C182.514 12.2648 182.993 12.3158 183.453 12.3158C183.881 12.3158 184.344 12.2648 184.85 12.1627C185.357 12.0606 185.828 11.8918 186.271 11.6563C186.715 11.4207 187.08 11.1145 187.371 10.7376C187.661 10.3607 187.81 9.89744 187.81 9.3478C187.81 8.79817 187.665 8.35846 187.371 7.98157C187.08 7.60467 186.715 7.29845 186.279 7.06289C185.844 6.82733 185.376 6.65459 184.87 6.54466C184.363 6.43474 183.892 6.37977 183.449 6.37977C183.005 6.37977 182.534 6.43474 182.027 6.54466C181.521 6.65459 181.054 6.82733 180.618 7.06289C180.182 7.29845 179.825 7.60467 179.538 7.98157C179.256 8.35846 179.11 8.81387 179.11 9.3478H179.118Z" fill="white"/>
<path d="M195.651 19.5003H216.945V21.7145H195.651V19.5003ZM201.964 12.9282H213.435V15.1424H199.302V5.10767H213.153V7.32191H201.964V12.9282Z" fill="white"/>
<path d="M0 27.984C0 27.984 10.1565 26.4725 19.8811 4.07096C19.8811 4.07096 20.3954 17.0934 24.8592 22.7861C24.8592 22.7861 33.0449 1.60546 49.7342 1.60546C56.2709 1.60546 67.4795 6.43047 75.1234 0.00366211C75.1234 0.00366211 70.7459 7.45907 56.7028 7.45907C52.8121 7.45907 47.7084 5.73165 44.0376 5.73165C31.3135 5.73165 30.756 27.7171 26.5435 27.7171C23.3752 27.7171 18.3696 18.5617 18.3696 12.0878C18.3696 12.0878 12.7084 28.6083 0.00392597 27.988L0 27.984Z" fill="white"/>
<path d="M69.3797 6.92163C69.3797 6.92163 65.0062 14.7108 52.3292 14.75C43.7392 14.7736 39.6052 11.4797 34.5014 19.3395C34.5014 19.3395 35.7813 9.99566 47.4492 9.99566C54.5395 9.99566 63.2395 12.9401 69.3797 6.92556V6.92163Z" fill="white"/>
<path d="M34.5014 21.1218C34.5014 21.1218 36.2328 17.2312 41.0381 17.2312C45.8435 17.2312 51.1946 21.8599 56.5418 18.9037C56.5418 18.9037 55.1991 21.5419 49.2002 21.5419C43.2013 21.5419 38.82 16.3636 34.4975 21.1179L34.5014 21.1218Z" fill="white"/>
</g>
<defs>
<clipPath id="clip0_8247_1809">
<rect width="216.945" height="28" fill="white"/>
</clipPath>
</defs>
</svg>
