<svg width="179" height="23" viewBox="0 0 179 23" fill="none" xmlns="http://www.w3.org/2000/svg">
<g clip-path="url(#clip0_8247_946)">
<path d="M76.9912 3.65394H79.1777V15.7086H76.9912V9.28462H75.5013C75.4626 9.62324 75.3852 9.94573 75.2691 10.2585C75.0498 10.8165 74.737 11.3099 74.3307 11.7355C73.9243 12.1645 73.4503 12.4998 72.9085 12.7482C72.3667 12.9933 71.7991 13.119 71.2057 13.119C70.5607 13.119 69.9706 12.9965 69.4353 12.7514C68.8999 12.5063 68.4388 12.1741 68.0518 11.7549C67.6648 11.3357 67.3649 10.8422 67.152 10.2747C66.9392 9.70708 66.8328 9.1008 66.8328 8.45582C66.8328 7.81084 66.9424 7.24648 67.1617 6.68535C67.381 6.12422 67.6841 5.62758 68.0711 5.19545C68.4581 4.76331 68.9193 4.42147 69.4546 4.16993C69.9899 3.91839 70.5736 3.79261 71.2057 3.79261C71.7862 3.79261 72.3473 3.91839 72.8891 4.16993C73.4309 4.42147 73.9017 4.76008 74.3016 5.18577C74.7015 5.61146 75.0176 6.10809 75.2498 6.67568C75.353 6.93367 75.4303 7.19811 75.4819 7.469H76.9912V3.65717V3.65394ZM73.3535 8.43325C73.3535 8.10108 73.3116 7.76569 73.2277 7.43353C73.1439 7.10136 73.0149 6.79822 72.8408 6.53056C72.6666 6.25966 72.4441 6.04037 72.1732 5.86623C71.9023 5.69208 71.5798 5.60823 71.2057 5.60823C70.8316 5.60823 70.5059 5.69531 70.2286 5.86623C69.9512 6.04037 69.7223 6.25966 69.5417 6.53056C69.3611 6.79822 69.2289 7.10459 69.145 7.4432C69.0612 7.78182 69.0192 8.11721 69.0192 8.4526C69.0192 8.86216 69.0708 9.23947 69.174 9.58776C69.2772 9.93283 69.4256 10.236 69.6191 10.4907C69.8126 10.7455 70.0448 10.9454 70.3157 11.0873C70.5865 11.2292 70.8832 11.3002 71.2057 11.3002C71.4895 11.3002 71.7604 11.2357 72.0184 11.1067C72.2764 10.9777 72.5054 10.7939 72.7053 10.5488C72.9053 10.3069 73.0633 10.007 73.1794 9.65549C73.2955 9.30397 73.3535 8.89763 73.3535 8.43647V8.43325ZM73.8373 19.4818H82.9702V21.3006H71.6508V15.0507H73.8373V19.4818ZM80.3967 3.46045H82.5832V16.0956H80.3967V3.46045Z" fill="#002E5F"/>
<path d="M96.1084 11.4904L94.9119 13.0383C94.1251 12.6643 93.3575 12.1902 92.6029 11.6162C91.8483 11.0421 91.2227 10.4391 90.7196 9.80699C90.5261 10.0908 90.281 10.3875 89.9843 10.6971C89.6876 11.0067 89.3554 11.3195 88.9878 11.6355C88.6202 11.9516 88.2235 12.2579 87.7946 12.5546C87.3689 12.8513 86.9239 13.1222 86.4563 13.3673L85.1179 11.7613C85.7887 11.4001 86.4079 11.0196 86.9755 10.6197C87.543 10.2198 88.0332 9.77797 88.446 9.29424C88.8588 8.8105 89.1813 8.27194 89.4135 7.67856C89.6457 7.08518 89.7618 6.40795 89.7618 5.64687V3.84738H91.9483V5.72427C91.9483 6.11126 91.9321 6.47245 91.8999 6.80784C91.8676 7.14323 91.7999 7.47217 91.6967 7.79466C91.9418 8.20744 92.2385 8.59443 92.5836 8.95562C92.9286 9.31681 93.3027 9.6522 93.6994 9.96179C94.096 10.2714 94.5024 10.5552 94.9119 10.8132C95.3215 11.0712 95.7214 11.2969 96.1052 11.4904H96.1084ZM89.1426 14.4896H100.114V21.436H89.1426V14.4896ZM91.3291 16.3084V19.6171H97.9272V16.3084H91.3291ZM100.114 7.19482H103.345V9.01367H100.114V13.8317H97.9272V3.47974H100.114V7.19482Z" fill="#002E5F"/>
<path d="M104.409 10.1166H115.98C116.032 9.98765 116.077 9.85543 116.116 9.72643C116.245 9.2814 116.354 8.83314 116.445 8.3752H107.718V6.55636H116.735C116.761 6.32416 116.78 6.08552 116.793 5.84043C116.806 5.59533 116.812 5.40829 116.812 5.27929H107.351V3.46045H118.999C119.025 4.90521 118.928 6.25321 118.709 7.50448C118.554 8.40745 118.347 9.27817 118.089 10.1166H121.901V11.9355H104.409V10.1166ZM109.595 19.6559H119.096V21.4361H107.409V16.5407H116.716V15.341H107.409V13.5608H118.902V18.3208H109.595V19.6559Z" fill="#002E5F"/>
<path d="M135.465 21.4167V15.7667C135.233 15.7925 135.014 15.8183 134.807 15.8441C134.214 15.9086 133.637 15.9569 133.075 15.9892C132.514 16.0214 131.95 16.0408 131.382 16.0472C130.815 16.0537 130.196 16.0569 129.525 16.0569H123.875V8.91698H130.279V6.22742H123.875V4.40857H132.466V10.7358H126.061V14.2381H131.382C131.95 14.2381 132.511 14.2187 133.066 14.18C133.62 14.1413 134.194 14.0768 134.788 13.9865C135.007 13.9607 135.233 13.9285 135.465 13.8898V3.46045H137.652V8.74284H140.883V10.5617H137.652V21.4167H135.465Z" fill="#002E5F"/>
<path d="M141.944 13.4059H159.436V15.2248H151.793V21.3972H149.606V15.2248H141.944V13.4059ZM144.943 7.6785C144.943 6.96902 145.124 6.34662 145.485 5.81128C145.846 5.27595 146.307 4.83091 146.868 4.47617C147.429 4.12143 148.049 3.85699 148.726 3.68285C149.403 3.5087 150.058 3.42163 150.69 3.42163C151.322 3.42163 151.977 3.5087 152.654 3.68285C153.331 3.85699 153.95 4.12143 154.511 4.47617C155.072 4.83091 155.537 5.27595 155.904 5.81128C156.272 6.34662 156.456 6.96902 156.456 7.6785C156.456 8.38798 156.275 9.01039 155.914 9.54572C155.553 10.0811 155.092 10.5261 154.531 10.8808C153.97 11.2356 153.347 11.5 152.663 11.6742C151.98 11.8483 151.322 11.9354 150.69 11.9354C150.058 11.9354 149.384 11.8483 148.706 11.6742C148.029 11.5 147.41 11.2388 146.849 10.8905C146.288 10.5422 145.83 10.1004 145.475 9.56507C145.12 9.02974 144.943 8.40088 144.943 7.6785ZM147.133 7.6785C147.133 8.12999 147.249 8.51053 147.484 8.82012C147.716 9.12971 148.01 9.38125 148.358 9.57474C148.71 9.76824 149.09 9.90691 149.506 9.99076C149.922 10.0746 150.316 10.1165 150.693 10.1165C151.045 10.1165 151.425 10.0746 151.841 9.99076C152.257 9.90691 152.644 9.76824 153.008 9.57474C153.373 9.38125 153.673 9.12971 153.911 8.82012C154.15 8.51053 154.273 8.12999 154.273 7.6785C154.273 7.22702 154.153 6.86583 153.911 6.55624C153.673 6.24665 153.373 5.9951 153.015 5.80161C152.657 5.60811 152.273 5.46622 151.857 5.37592C151.441 5.28562 151.054 5.24048 150.69 5.24048C150.325 5.24048 149.938 5.28562 149.522 5.37592C149.106 5.46622 148.723 5.60811 148.365 5.80161C148.007 5.9951 147.713 6.24665 147.478 6.55624C147.246 6.86583 147.126 7.23991 147.126 7.6785H147.133Z" fill="#002E5F"/>
<path d="M160.713 16.018H178.205V17.8369H160.713V16.018ZM165.899 10.6196H175.322V12.4384H163.712V4.19556H175.089V6.0144H165.899V10.6196Z" fill="#002E5F"/>
<path d="M0 22.987C0 22.987 8.34282 21.7455 16.3309 3.34417C16.3309 3.34417 16.7534 14.0412 20.4201 18.7173C20.4201 18.7173 27.144 1.31893 40.8531 1.31893C46.2225 1.31893 55.4296 5.28234 61.7085 0.00317383C61.7085 0.00317383 58.1127 6.12726 46.5773 6.12726C43.3814 6.12726 39.189 4.70831 36.1737 4.70831C25.7218 4.70831 25.2639 22.7678 21.8036 22.7678C19.2011 22.7678 15.0893 15.2473 15.0893 9.92942C15.0893 9.92942 10.439 23.4998 0.0032249 22.9903L0 22.987Z" fill="#002E5F"/>
<path d="M56.9904 5.68555C56.9904 5.68555 53.3978 12.0838 42.9846 12.116C35.9285 12.1354 32.5327 9.42966 28.3403 15.8859C28.3403 15.8859 29.3917 8.21064 38.9761 8.21064C44.8002 8.21064 51.9466 10.6293 56.9904 5.68877V5.68555Z" fill="#ED6B06"/>
<path d="M28.3404 17.3502C28.3404 17.3502 29.7626 14.1543 33.7098 14.1543C37.6571 14.1543 42.0527 17.9565 46.445 15.5281C46.445 15.5281 45.3421 17.6952 40.4144 17.6952C35.4868 17.6952 31.8878 13.4416 28.3372 17.3469L28.3404 17.3502Z" fill="#4B9228"/>
</g>
<defs>
<clipPath id="clip0_8247_946">
<rect width="178.205" height="23" fill="white"/>
</clipPath>
</defs>
</svg>
