<svg width="36" height="22" viewBox="0 0 36 22" fill="none" xmlns="http://www.w3.org/2000/svg">
<path d="M16.3563 14.3706C16.3563 10.1515 13.134 6.78884 8.97954 6.78884C7.03315 6.78884 5.1849 7.53434 3.82735 8.99359H3.38573C4.33439 5.99577 7.21308 3.48965 10.7951 2.45866C11.3021 2.30005 11.6783 2.15729 11.9073 1.96695C12.169 1.76075 12.3162 1.50697 12.3162 1.14216C12.3162 0.475973 11.7928 0.0159912 11.0241 0.0159912C10.517 0.0159912 10.1245 0.11116 9.42116 0.333221C7.164 1.04699 5.13584 2.30005 3.56565 3.90205C1.35756 6.12267 0 9.08875 0 12.61C0 18.558 3.89277 22 8.45614 22C12.9541 22 16.3563 18.6691 16.3563 14.3706ZM36 14.3706C36 10.1515 32.7615 6.78884 28.6233 6.78884C26.677 6.78884 24.8123 7.53434 23.4711 8.99359H23.0295C23.9782 5.99577 26.8569 3.48965 30.4225 2.45866C30.9296 2.30005 31.3221 2.15729 31.5511 1.96695C31.8128 1.76075 31.9436 1.50697 31.9436 1.14216C31.9436 0.475973 31.4365 0.0159912 30.6679 0.0159912C30.1445 0.0159912 29.7682 0.11116 29.0486 0.333221C26.8077 1.04699 24.7633 2.30005 23.1931 3.90205C21.0014 6.12267 19.6437 9.08875 19.6437 12.61C19.6437 18.558 23.5366 22 28.0999 22C32.5979 22 36 18.6691 36 14.3706Z" fill="#D4D4D4"/>
</svg>
