<svg width="21" height="13" viewBox="0 0 21 13" fill="none" xmlns="http://www.w3.org/2000/svg">
<path d="M10.7526 12.4805C11.0416 12.4805 11.3305 12.3633 11.5271 12.1406L20.474 2.84766C20.6705 2.64844 20.7861 2.39062 20.7861 2.09766C20.7861 1.48828 20.3352 1.01953 19.7342 1.01953C19.4452 1.01953 19.1793 1.13672 18.9827 1.32422L10.1284 10.5H11.3652L2.51077 1.32422C2.32582 1.13672 2.05996 1.01953 1.75942 1.01953C1.15833 1.01953 0.70752 1.48828 0.70752 2.09766C0.70752 2.39062 0.823113 2.64844 1.01962 2.85938L9.96653 12.1406C10.1862 12.3633 10.452 12.4805 10.7526 12.4805Z" fill="#232323"/>
</svg>
