<svg width="21" height="13" viewBox="0 0 21 13" fill="none" xmlns="http://www.w3.org/2000/svg">
<path d="M10.7411 -3.33031e-05C10.4521 -3.33284e-05 10.1632 0.117167 9.96657 0.339867L1.01967 9.63281C0.823183 9.83203 0.707579 10.0898 0.707579 10.3828C0.707579 10.9922 1.15846 11.4609 1.75947 11.4609C2.04848 11.4609 2.31432 11.3437 2.5109 11.1562L11.3653 1.98047L10.1284 1.98047L18.9829 11.1562C19.1678 11.3437 19.4337 11.4609 19.7342 11.4609C20.3353 11.4609 20.7861 10.9922 20.7861 10.3828C20.7861 10.0898 20.6705 9.83203 20.474 9.62109L11.5271 0.339867C11.3075 0.117167 11.0416 -3.32768e-05 10.7411 -3.33031e-05Z" fill="#232323"/>
</svg>
