<svg width="36" height="22" viewBox="0 0 36 22" fill="none" xmlns="http://www.w3.org/2000/svg">
<path d="M0 7.64529C0 11.8645 3.23852 15.2271 7.37664 15.2271C9.32303 15.2271 11.1713 14.4816 12.5288 13.0223H12.9705C12.0218 16.0201 9.1431 18.5263 5.57745 19.5573C5.05405 19.7159 4.67786 19.8587 4.44888 20.049C4.18718 20.2552 4.05633 20.509 4.05633 20.8739C4.05633 21.5401 4.56337 22 5.31575 22C5.85551 22 6.2317 21.9048 6.95138 21.6827C9.19218 20.969 11.2367 19.7159 12.8069 18.1139C14.9986 15.8933 16.3563 12.9272 16.3563 9.40592C16.3563 3.45783 12.4634 0.0158691 7.90004 0.0158691C3.40209 0.0158691 0 3.3468 0 7.64529ZM19.6437 7.64529C19.6437 11.8645 22.8659 15.2271 27.0204 15.2271C28.9668 15.2271 30.7987 14.4816 32.1726 13.0223H32.5979C31.6656 16.0201 28.7869 18.5263 25.2049 19.5573C24.6815 19.7159 24.3217 19.8587 24.0926 20.049C23.8309 20.2552 23.6838 20.509 23.6838 20.8739C23.6838 21.5401 24.2072 22 24.9758 22C25.4829 22 25.8755 21.9048 26.5788 21.6827C28.836 20.969 30.8641 19.7159 32.418 18.1139C34.6424 15.8933 36 12.9272 36 9.40592C36 3.45783 32.1072 0.0158691 27.5438 0.0158691C23.0458 0.0158691 19.6437 3.3468 19.6437 7.64529Z" fill="#D4D4D4"/>
</svg>
